<?xml version="1.0" encoding="UTF-8" standalone="no"?>
<!-- Created with Inkscape (http://www.inkscape.org/) -->

<svg
   xmlns:dc="http://purl.org/dc/elements/1.1/"
   xmlns:cc="http://creativecommons.org/ns#"
   xmlns:rdf="http://www.w3.org/1999/02/22-rdf-syntax-ns#"
   xmlns:svg="http://www.w3.org/2000/svg"
   xmlns="http://www.w3.org/2000/svg"
   xmlns:sodipodi="http://sodipodi.sourceforge.net/DTD/sodipodi-0.dtd"
   xmlns:inkscape="http://www.inkscape.org/namespaces/inkscape"
   width="1052.3622"
   height="744.09448"
   viewBox="0 0 1052.3622 744.09448"
   id="svg4486"
   version="1.1"
   inkscape:version="0.91 r13725"
   sodipodi:docname="blogbook3.svg">
  <defs
     id="defs4488" />
  <sodipodi:namedview
     id="base"
     pagecolor="#ffffff"
     bordercolor="#666666"
     borderopacity="1.0"
     inkscape:pageopacity="0.0"
     inkscape:pageshadow="2"
     inkscape:zoom="0.7"
     inkscape:cx="732.46051"
     inkscape:cy="517.14286"
     inkscape:document-units="px"
     inkscape:current-layer="layer1"
     showgrid="false"
     units="px"
     inkscape:window-width="1920"
     inkscape:window-height="1027"
     inkscape:window-x="0"
     inkscape:window-y="0"
     inkscape:window-maximized="1" />
  <metadata
     id="metadata4491">
    <rdf:RDF>
      <cc:Work
         rdf:about="">
        <dc:format>image/svg+xml</dc:format>
        <dc:type
           rdf:resource="http://purl.org/dc/dcmitype/StillImage" />
        <dc:title />
      </cc:Work>
    </rdf:RDF>
  </metadata>
  <g
     inkscape:label="Layer 1"
     inkscape:groupmode="layer"
     id="layer1"
     transform="translate(0,-308.26772)">
    <text
       xml:space="preserve"
       style="font-style:normal;font-variant:normal;font-weight:normal;font-stretch:normal;font-size:366.96328735px;line-height:125%;font-family:'SF Burlington Script';-inkscape-font-specification:'SF Burlington Script';letter-spacing:0px;word-spacing:0px;fill:#557e8a;fill-opacity:1;stroke:none;stroke-width:1px;stroke-linecap:butt;stroke-linejoin:miter;stroke-opacity:1"
       x="194.52753"
       y="747.34814"
       id="text4169"
       sodipodi:linespacing="125%"
       inkscape:export-xdpi="90"
       inkscape:export-ydpi="90"><tspan
         sodipodi:role="line"
         id="tspan4171"
         x="194.52753"
         y="747.34814">BlogBook</tspan></text>
    <g
       id="g4195"
       transform="matrix(0.08669676,-0.00670975,0.00670975,0.08669676,286.18185,338.82679)"
       inkscape:export-xdpi="90"
       inkscape:export-ydpi="90">
      <g
         id="g4183">
        <path
           inkscape:connector-curvature="0"
           style="fill:#deb82a;fill-opacity:1;stroke:none"
           d="m -3505.5684,5359.2603 c 0.6723,0.451 1.3739,0.8235 2.0932,1.1209 20.765,12.3282 33.9614,-15.0297 71.0989,-52.9208 25.2192,-23.595 35.0024,-33.4622 58.8444,-53.9699 18.9799,-16.3674 38.9355,-34.8626 105.7682,-75.3669 0,0 43.6431,-25.2462 69.1303,-39.1706 47.693,-23.1584 101.7797,-60.0159 131.3888,-100.3953 21.9159,-37.4075 31.3105,-60.3671 28.9638,-74.8528 -78.0623,-15.4999 -141.9363,-30.222 -153.1451,-19.7683 -59.9984,54.7362 -106.2013,166.1497 -173.5499,203.2064 l -68.2436,100.6432 67.9395,-100.8219 c 9.2818,-76.3078 95.4439,-160.7107 123.8707,-236.788 5.5223,-14.2976 -31.9469,-68.0809 -75.4275,-134.7397 -14.3166,3.222 -32.1203,20.4969 -58.6627,54.7769 -26.4325,42.5268 -40.4718,106.4549 -44.1836,159.343 -3.4205,28.8407 -10.5794,78.7495 -10.5794,78.7495 -12.6731,77.1141 -22.3981,102.5264 -30.5112,126.2394 -10.1425,29.768 -15.6511,42.5232 -28.1451,74.7199 -20.9585,47.7674 -41.0968,70.2658 -23.5413,84.9543 0.6261,0.6827 1.3318,1.3112 2.1367,1.8511 l 4.7549,3.1896 z m 40.8757,-64.8034 -0.1015,-0.068 1.798,-2.5505 -1.6965,2.6186 z"
           id="path4212" />
        <path
           inkscape:connector-curvature="0"
           style="fill:#557e8a;fill-opacity:1;stroke:none"
           d="m -3372.6329,5165.0477 c 16.8586,11.075 38.9784,-6.0566 39.0424,-5.7015 26.7879,-15.5297 42.0561,-26.1383 98.8863,-59.4913 0,0 53.9686,-27.2655 78.6517,-40.4044 46.2222,-21.7895 86.1517,-36.5363 114.5407,-75.1614 35.5498,-64.5036 44.7745,-82.1499 64.6969,-123.1441 l 66.9925,-134.9073 34.1598,-60.9346 -112.1684,-76.4021 -0.9019,1.3319 -0.3547,-0.2379 0.8893,-1.3166 -112.7076,-75.6055 -43.8099,54.4105 -100.2138,112.4513 c -30.6137,33.7673 -43.5496,48.9047 -90.1532,105.9363 -25.2593,40.7406 -24.0595,83.2896 -27.0491,134.3027 -2.9915,27.8017 -8.175,88.0449 -8.175,88.0449 -9.7658,65.1669 -13.9186,83.2887 -18.3439,113.9347 0.3535,-0.073 -7.2976,26.8385 9.2633,38.3538 1.0922,0.7596 2.292,1.4515 3.6041,2.0649 1.0241,0.946 2.0752,1.7693 3.1489,2.4746 l 8e-4,6e-4 z m 135.6923,-208.0036 3.9113,-5.7931 0.01,0 -3.9168,5.7894 z"
           id="path4217" />
        <circle
           style="fill:#ffffff;fill-opacity:1;stroke:none"
           id="path4260"
           cx="-73.634834"
           cy="-5859.2339"
           r="57.170334"
           transform="matrix(-0.83045844,-0.55708058,0.55708058,-0.83045844,0,0)" />
        <rect
           style="fill:#ffffff;stroke:none"
           id="rect4207"
           width="538.01257"
           height="8.8430014"
           x="5806.647"
           y="69.213326"
           transform="matrix(-0.55708058,0.83045844,0.83045844,0.55708058,0,0)" />
        <path
           style="fill:#deb82a;fill-opacity:1;stroke:none"
           d="m -2951.5375,4601.8243 129.5825,85.9577 c 4.1401,2.7459 8.2399,-0.4912 15.2437,-8.8648 l 17.7552,-21.2275 c 14.5225,-18.4552 6.7011,-18.2697 -5.9966,-26.4874 -8.2015,-5.3079 -21.3121,-14.6682 -21.3121,-14.6682 l -132.887,-87.4201 -131.2938,-89.7953 c 0,0 -13.633,-8.5796 -21.6552,-14.1547 -12.4201,-8.6316 -16.4002,-15.2803 -27.9675,5.1573 l -11.7221,23.8212 c -4.8087,9.7722 -6.5302,14.6789 -2.4189,17.4678 l 128.6871,87.2924 31.4461,21.7188 z"
           id="rect4262"
           inkscape:connector-curvature="0"
           sodipodi:nodetypes="csscscccscssccc" />
        <path
           style="fill:#557e8a;fill-opacity:1;stroke:none"
           d="m -2942.9636,4522.1933 0.013,-0.02 166.1796,109.5805 c 79.8581,-105.3473 185.7419,-246.8016 255.0131,-341.5507 61.9557,-83.9872 198.5935,-263.0712 198.5935,-263.0712 22.0681,-33.2087 47.0855,-59.2426 63.982,-90.9611 6.3265,-11.8751 11.16,-25.9703 3.2158,-31.2994 -60.4868,-40.1529 -130.5449,-85.5306 -191.0119,-124.899 -59.3627,-41.0147 -127.9248,-88.6249 -188.0208,-129.3602 -7.9444,-5.3292 -19.1526,4.4898 -27.7405,14.8479 -22.9387,27.6653 -37.5373,60.6883 -59.8931,93.7039 0,0 -113.8704,194.3567 -168.0796,283.5403 -61.3919,100.0347 -152.1094,251.6627 -219.2914,365.5132 l 164.4265,112.1937 -0.013,0.02 1.3213,0.8694 1.3056,0.8927 z"
           id="rect4288"
           inkscape:connector-curvature="0" />
        <path
           style="fill:#557e8a;fill-opacity:1;stroke:none"
           d="m -774.21265,1441.6061 c 24.44947,16.3865 49.45727,32.9385 75.43815,49.7636 l 41.80702,26.2388 c 0,0 72.95428,-90.2722 42.86643,-111.6299 -54.71666,-38.8402 -128.03025,-87.9706 -128.03025,-87.9706 -14.33298,-10.2953 -25.61313,-17.7702 -36.608,-24.9357 -10.80027,-7.4549 -21.99504,-15.0565 -36.95728,-24.4127 0,0 -73.2685,-49.1999 -129.96191,-85.0933 -31.1745,-19.7378 -87.02691,82.0065 -87.02691,82.0065 l 40.1361,28.7296 c 50.68954,35.2058 98.90682,67.24 146.6829,98.8385 23.60685,16.0602 47.35395,32.1798 71.65375,48.4652 z"
           id="path4298"
           inkscape:connector-curvature="0" />
        <path
           sodipodi:nodetypes="csscscccscssccc"
           inkscape:connector-curvature="0"
           id="path4348"
           d="m -2400.4106,3798.0397 162.7073,107.8664 c 5.1982,3.4461 10.5303,-0.8936 19.7265,-12.0074 l 23.3129,-28.1743 c 19.1021,-24.4665 9.1155,-23.9836 -6.8343,-34.2863 -10.3022,-6.6545 -26.7437,-18.4315 -26.7437,-18.4315 l -166.8791,-109.6677 -164.7727,-112.8079 c 0,0 -17.1322,-10.7447 -27.1973,-17.7527 -15.5829,-10.8498 -20.4567,-19.3798 -35.8488,7.5754 l -15.6942,31.3636 c -6.4383,12.8663 -8.7866,19.3051 -3.6262,22.8076 l 161.5235,109.6312 39.4581,27.2945 z"
           style="fill:#deb82a;fill-opacity:1;stroke:none" />
        <path
           sodipodi:nodetypes="csscscccscssccc"
           inkscape:connector-curvature="0"
           id="path4376"
           d="m -860.72436,1493.5261 145.56274,96.3656 c 4.65047,3.0787 9.80594,-1.3794 18.87516,-12.5784 l 22.99107,-28.3903 c 18.90595,-24.598 9.62408,-23.6424 -4.65842,-32.8266 -9.22519,-5.9321 -23.89134,-16.5181 -23.89134,-16.5181 l -149.3421,-97.9037 -147.23565,-101.0439 c 0,0 -15.357,-9.5538 -24.3451,-15.8394 -13.9155,-9.7313 -18.0165,-17.7429 -33.6048,9.0807 l -16.084,31.1021 c -6.5982,12.7591 -9.0902,19.1014 -4.4776,22.2365 l 144.37891,98.1304 35.24477,24.4681 z"
           style="fill:#deb82a;fill-opacity:1;stroke:none" />
        <path
           inkscape:connector-curvature="0"
           id="path4404"
           d="m -902.74922,1475.272 c 52.41349,36.061 123.82347,85.4759 179.44791,123.5587 -212.73787,331.9099 -498.14399,775.0502 -689.01279,1068.7683 -169.2903,261.3957 -531.094,827.2849 -531.094,827.2849 -66.4928,98.7877 -120.0328,190.7452 -182.7764,277.2366 -23.4908,32.3828 -50.8832,65.7874 -59.4506,60.0403 -64.4374,-44.4865 -141.0858,-95.6115 -204.0515,-141.4141 -66.2639,-40.886 -139.1097,-90.0434 -204.7141,-132.7903 -8.5675,-5.7472 11.9501,-43.7634 33.0022,-77.7823 56.2274,-90.8624 121.0035,-175.2826 187.186,-274.2785 0,0 386.357,-549.4186 564.0015,-805.2102 199.3662,-288.0179 501.1283,-720.1865 727.5366,-1042.9261 61.2271,39.1442 118.76815,78.4134 179.92518,117.5127 z"
           style="fill:#557e8a;fill-opacity:1;stroke:none"
           sodipodi:nodetypes="ccccccccccccc" />
      </g>
    </g>
    <g
       transform="matrix(-0.50399427,1.9709267,1.9205518,0.51721373,-10516.616,22675.289)"
       style="font-style:normal;font-variant:normal;font-weight:normal;font-stretch:normal;font-size:11365.4609375px;line-height:125%;font-family:'SF Burlington Script';-inkscape-font-specification:'SF Burlington Script';letter-spacing:0px;word-spacing:0px;fill:#deb82a;fill-opacity:1;stroke:none;stroke-width:1px;stroke-linecap:butt;stroke-linejoin:miter;stroke-opacity:1"
       id="text4317"
       inkscape:export-xdpi="90"
       inkscape:export-ydpi="90">
      <path
         d="m -11774.073,2648.0171 c 56.782,-62.2333 -37.591,-31.2127 -11.994,-104.6233 10.901,-32.6315 30.955,-67.7645 62.943,-118.219 6.617,-9.4247 14.232,-20.2481 11.747,-11.4769 -0.155,0.1529 -3.465,5.6649 -9.931,16.5357 -6.621,10.8706 -16.629,27.2529 -30.027,49.1465 -16.115,25.6247 -28.415,59.5097 -29.626,64.6041 -7.791,21.564 -1.123,37.0064 10.797,45.6188 14.592,10.1889 26.492,15.8531 17.177,39.795 -0.962,6.8505 -20.203,27.2698 -25.951,31.8007 -8.15,6.7751 -39.098,28.7367 -39.88,65.0873 1.115,5.5441 -2.946,42.1963 -8.313,64.5135 -7.992,33.2339 -27.207,98.5687 -28.505,104.0425 -2.174,5.9037 -5.047,17.0765 -6.382,10.7122 23.979,-85.9148 38.9,-124.037 38.016,-172.1046 -0.601,-32.7778 8.615,-47.3697 49.929,-85.4325 z"
         style="fill:#deb82a;fill-opacity:1"
         id="path4322"
         inkscape:connector-curvature="0"
         sodipodi:nodetypes="cccccccccccsccsc" />
    </g>
  </g>
</svg>
